<?xml version="1.0" encoding="UTF-8"?>
<!DOCTYPE svg PUBLIC "-//W3C//DTD SVG 1.1//EN" "http://www.w3.org/Graphics/SVG/1.1/DTD/svg11.dtd">
<svg xmlns="http://www.w3.org/2000/svg" version="1.1" width="473px" height="95px" style="shape-rendering:geometricPrecision; text-rendering:geometricPrecision; image-rendering:optimizeQuality; fill-rule:evenodd; clip-rule:evenodd" xmlns:xlink="http://www.w3.org/1999/xlink">
<g><path style="opacity:0.215" fill="#030404" d="M 281.5,-0.5 C 283.5,-0.5 285.5,-0.5 287.5,-0.5C 287.5,31.1667 287.5,62.8333 287.5,94.5C 285.5,94.5 283.5,94.5 281.5,94.5C 280.729,86.5472 280.229,78.5472 280,70.5C 276.957,75.8768 272.457,79.3768 266.5,81C 257.732,82.4987 249.399,81.3321 241.5,77.5C 239.705,79.7025 237.371,80.8692 234.5,81C 225.167,81.6667 215.833,81.6667 206.5,81C 203.121,79.8932 199.954,78.3932 197,76.5C 194.246,78.7574 191.079,80.2574 187.5,81C 180.086,81.8903 172.753,81.557 165.5,80C 159.974,78.4736 156.474,74.9736 155,69.5C 154.333,64.8333 154.333,60.1667 155,55.5C 156.113,53.408 156.279,51.0747 155.5,48.5C 151.818,48.3347 148.152,48.5014 144.5,49C 144,49.5 143.5,50 143,50.5C 141.725,59.065 141.058,67.7316 141,76.5C 139.934,79.5631 137.767,81.0631 134.5,81C 129.439,82.0889 124.772,81.2556 120.5,78.5C 119.846,76.8849 119.346,75.2182 119,73.5C 115.579,77.257 111.412,79.757 106.5,81C 98.0699,82.2469 89.9032,81.4136 82,78.5C 78.7883,80.3461 75.2883,81.3461 71.5,81.5C 47.5752,81.0967 23.5752,81.0967 -0.5,81.5C -0.5,77.5 -0.5,73.5 -0.5,69.5C 9.16667,69.5 18.8333,69.5 28.5,69.5C 28.5,68.5 28.5,67.5 28.5,66.5C 24.7016,65.5166 20.7016,65.1832 16.5,65.5C 16.5,54.5 16.5,43.5 16.5,32.5C 10.8333,32.5 5.16667,32.5 -0.5,32.5C -0.5,30.1667 -0.5,27.8333 -0.5,25.5C 1.16667,25.5 2.83333,25.5 4.5,25.5C 3.74055,16.4262 7.90722,12.0928 17,12.5C 20.5287,12.9725 23.862,13.9725 27,15.5C 28.3788,18.5148 29.2121,21.6815 29.5,25C 28.4118,36.1486 28.2451,47.3153 29,58.5C 29.3333,49.1667 29.6667,39.8333 30,30.5C 31.0661,27.4369 33.2328,25.9369 36.5,26C 48.5,25.3333 60.5,25.3333 72.5,26C 75.2417,27.0704 77.7417,28.5704 80,30.5C 82.4689,28.3485 85.3022,26.8485 88.5,26C 96.8572,24.6251 104.857,25.6251 112.5,29C 114.709,30.8734 116.542,33.04 118,35.5C 118.983,32.7617 120.149,30.095 121.5,27.5C 124.389,26.3611 127.389,25.6945 130.5,25.5C 138.689,25.5176 147.022,25.6842 155.5,26C 157.848,26.3459 159.681,27.5125 161,29.5C 163.304,27.9315 165.804,26.7648 168.5,26C 174.5,25.3333 180.5,25.3333 186.5,26C 190.714,26.7738 194.381,28.6071 197.5,31.5C 196.816,15.3315 204.483,8.66483 220.5,11.5C 224.833,11.6667 229.167,11.8333 233.5,12C 234.931,12.4652 236.097,13.2986 237,14.5C 238.763,20.5334 238.597,26.5334 236.5,32.5C 240.459,29.8538 244.792,27.6871 249.5,26C 257.857,24.6251 265.857,25.6251 273.5,29C 276.04,31.2047 278.207,33.7047 280,36.5C 280.296,24.1498 280.796,11.8164 281.5,-0.5 Z M 257.5,49.5 C 261.186,51.8957 261.353,54.5623 258,57.5C 254.896,54.9798 254.73,52.3132 257.5,49.5 Z"/></g>
<g><path style="opacity:1" fill="#41c4ff" d="M 287.5,-0.5 C 349.167,-0.5 410.833,-0.5 472.5,-0.5C 472.5,31.1667 472.5,62.8333 472.5,94.5C 410.833,94.5 349.167,94.5 287.5,94.5C 287.5,62.8333 287.5,31.1667 287.5,-0.5 Z"/></g>
<g><path style="opacity:1" fill="#dddddd" d="M 208.5,18.5 C 212.479,18.9902 216.146,20.3235 219.5,22.5C 221.915,22.2811 222.915,20.9477 222.5,18.5C 223.833,18.5 225.167,18.5 226.5,18.5C 225.96,21.745 224.294,24.245 221.5,26C 217.849,25.6069 214.349,24.4402 211,22.5C 208.625,22.8178 207.458,24.1511 207.5,26.5C 206.5,26.5 205.5,26.5 204.5,26.5C 203.774,22.693 205.107,20.0263 208.5,18.5 Z"/></g>
<g><path style="opacity:1" fill="#d4d4d4" d="M 12.5,19.5 C 17.4928,19.997 18.4928,22.1637 15.5,26C 10.1483,26.1754 9.14831,24.0087 12.5,19.5 Z"/></g>
<g><path style="opacity:1" fill="#fafdff" d="M 327.5,19.5 C 330.5,19.5 333.5,19.5 336.5,19.5C 336.5,36.1667 336.5,52.8333 336.5,69.5C 333.833,69.5 331.167,69.5 328.5,69.5C 328.649,68.448 328.483,67.448 328,66.5C 317.936,73.1471 310.603,70.8138 306,59.5C 305.139,53.4149 305.473,47.4149 307,41.5C 311.909,34.2096 318.409,32.5429 326.5,36.5C 327.495,30.8722 327.829,25.2055 327.5,19.5 Z"/></g>
<g><path style="opacity:1" fill="#fefefe" d="M -0.5,33.5 C 4.83333,33.5 10.1667,33.5 15.5,33.5C 15.5,44.5 15.5,55.5 15.5,66.5C 19.8333,66.5 24.1667,66.5 28.5,66.5C 28.5,67.5 28.5,68.5 28.5,69.5C 18.8333,69.5 9.16667,69.5 -0.5,69.5C -0.5,68.5 -0.5,67.5 -0.5,66.5C 3.83333,66.5 8.16667,66.5 12.5,66.5C 12.5,56.5 12.5,46.5 12.5,36.5C 8.16667,36.5 3.83333,36.5 -0.5,36.5C -0.5,35.5 -0.5,34.5 -0.5,33.5 Z"/></g>
<g><path style="opacity:1" fill="#f7f7f7" d="M 69.5,38.5 C 69.5,48.8333 69.5,59.1667 69.5,69.5C 68.5,69.5 67.5,69.5 66.5,69.5C 66.6665,59.4944 66.4998,49.4944 66,39.5C 63.4973,36.0549 60.3306,35.5549 56.5,38C 55.8742,38.7504 55.3742,39.5838 55,40.5C 54.5002,50.1609 54.3335,59.8276 54.5,69.5C 53.5,69.5 52.5,69.5 51.5,69.5C 51.8274,59.3194 51.494,49.3194 50.5,39.5C 48.5935,36.6676 45.9268,35.8343 42.5,37C 40.8588,38.129 39.8588,39.629 39.5,41.5C 38.8334,50.6753 38.1667,60.0086 37.5,69.5C 36.1667,57.5 36.1667,45.5 37.5,33.5C 38.1667,34.5 38.8333,35.5 39.5,36.5C 40.1067,36.3764 40.44,36.0431 40.5,35.5C 44.01,32.1666 48.01,31.6666 52.5,34C 53.5291,37.0571 54.8624,37.0571 56.5,34C 60.1667,32 63.8333,32 67.5,34C 68.5822,35.3297 69.2488,36.8297 69.5,38.5 Z"/></g>
<g><path style="opacity:1" fill="#ebebeb" d="M 88.5,32.5 C 102.323,31.3234 108.99,37.6567 108.5,51.5C 99.8333,51.5 91.1667,51.5 82.5,51.5C 82.8378,62.6755 88.5045,67.5088 99.5,66C 101.818,64.0073 104.484,62.8406 107.5,62.5C 107.201,65.6421 105.534,67.8088 102.5,69C 90.1989,72.9328 82.0323,68.7661 78,56.5C 76.3384,46.1632 79.8384,38.1632 88.5,32.5 Z"/></g>
<g><path style="opacity:1" fill="#f3f3f3" d="M 125.5,69.5 C 125.5,57.5 125.5,45.5 125.5,33.5C 126.833,33.5 128.167,33.5 129.5,33.5C 129.338,35.5273 129.505,37.5273 130,39.5C 134.462,33.0769 140.629,30.7436 148.5,32.5C 148.785,34.288 148.452,35.9547 147.5,37.5C 140.95,35.6271 135.45,37.2938 131,42.5C 129.557,51.3921 129.057,60.3921 129.5,69.5C 128.167,69.5 126.833,69.5 125.5,69.5 Z"/></g>
<g><path style="opacity:1" fill="#e6e6e6" d="M 169.5,32.5 C 174.777,31.9312 179.777,32.7645 184.5,35C 187.321,37.1413 188.654,39.9746 188.5,43.5C 187.167,43.5 185.833,43.5 184.5,43.5C 183.208,38.197 179.708,35.8637 174,36.5C 169.629,36.3771 166.796,38.3771 165.5,42.5C 165.637,44.1073 166.304,45.4406 167.5,46.5C 172.055,48.3062 176.721,49.8062 181.5,51C 189.827,54.3207 191.494,59.654 186.5,67C 177.956,72.0405 169.789,71.5405 162,65.5C 160.872,63.6547 160.372,61.6547 160.5,59.5C 161.978,59.238 163.311,59.5713 164.5,60.5C 165.301,63.1334 166.967,64.9667 169.5,66C 174.726,67.1639 179.559,66.3306 184,63.5C 184.944,60.6529 184.444,58.1529 182.5,56C 177.637,53.9344 172.637,52.2678 167.5,51C 161.911,48.5493 160.078,44.3826 162,38.5C 164.134,35.8474 166.634,33.8474 169.5,32.5 Z"/></g>
<g><path style="opacity:1" fill="#ebebeb" d="M 209.5,32.5 C 216.521,31.3717 222.354,33.3717 227,38.5C 228.219,48.759 229.052,59.0923 229.5,69.5C 227.833,69.5 226.167,69.5 224.5,69.5C 224.657,68.1266 224.49,66.7932 224,65.5C 216.865,71.6665 209.532,71.9998 202,66.5C 197.708,59.415 199.208,53.915 206.5,50C 212.407,48.6392 218.407,48.1392 224.5,48.5C 224.542,38.4912 219.542,34.6579 209.5,37C 206.762,38.3116 205.428,40.4783 205.5,43.5C 203.833,43.5 202.167,43.5 200.5,43.5C 201.698,38.3074 204.698,34.6407 209.5,32.5 Z"/></g>
<g><path style="opacity:1" fill="#e8e8e8" d="M 249.5,32.5 C 267.272,32.8045 274.105,41.8045 270,59.5C 265.345,69.4111 257.845,72.5778 247.5,69C 237.451,59.7856 235.951,49.2856 243,37.5C 245.326,35.9343 247.492,34.2676 249.5,32.5 Z M 257.5,49.5 C 254.73,52.3132 254.896,54.9798 258,57.5C 261.353,54.5623 261.186,51.8957 257.5,49.5 Z"/></g>
<g><path style="opacity:1" fill="#fafdff" d="M 356.5,34.5 C 371.815,32.4841 379.148,39.1508 378.5,54.5C 370.5,54.5 362.5,54.5 354.5,54.5C 356.094,61.3077 360.427,64.1411 367.5,63C 369.664,62.0857 371.664,60.919 373.5,59.5C 378.771,62.4402 378.771,65.2735 373.5,68C 360.908,73.2822 351.741,69.7822 346,57.5C 344.127,47.2537 347.627,39.587 356.5,34.5 Z"/></g>
<g><path style="opacity:1" fill="#fafdff" d="M 384.5,35.5 C 387.625,34.5206 390.958,34.1872 394.5,34.5C 396.892,42.8448 399.392,51.1782 402,59.5C 404.918,51.5821 407.751,43.5821 410.5,35.5C 413.428,34.5159 416.428,34.1826 419.5,34.5C 415.632,45.9105 411.465,57.2438 407,68.5C 403.943,69.4505 400.777,69.7839 397.5,69.5C 393.934,57.7904 389.6,46.4571 384.5,35.5 Z"/></g>
<g><path style="opacity:0.452" fill="#101010" d="M 89.5,36.5 C 98.6905,35.3635 103.691,39.3635 104.5,48.5C 97.1667,48.5 89.8333,48.5 82.5,48.5C 83.1889,43.4918 85.5222,39.4918 89.5,36.5 Z"/></g>
<g><path style="opacity:0.284" fill="#040404" d="M 250.5,36.5 C 256.734,35.3734 261.568,37.3734 265,42.5C 267.587,49.9703 266.754,56.9703 262.5,63.5C 255.586,68.243 249.753,67.243 245,60.5C 243.561,55.2375 243.228,49.9042 244,44.5C 245.479,41.1725 247.645,38.5058 250.5,36.5 Z M 257.5,49.5 C 254.73,52.3132 254.896,54.9798 258,57.5C 261.353,54.5623 261.186,51.8957 257.5,49.5 Z"/></g>
<g><path style="opacity:0.175" fill="#000000" d="M -0.5,37.5 C 3.5,37.5 7.5,37.5 11.5,37.5C 11.5,46.8333 11.5,56.1667 11.5,65.5C 7.5,65.5 3.5,65.5 -0.5,65.5C -0.5,63.1667 -0.5,60.8333 -0.5,58.5C 1.5,58.5 3.5,58.5 5.5,58.5C 5.5,55.1667 5.5,51.8333 5.5,48.5C 3.5,48.5 1.5,48.5 -0.5,48.5C -0.5,44.8333 -0.5,41.1667 -0.5,37.5 Z"/></g>
<g><path style="opacity:0.466" fill="#636363" d="M 129.5,33.5 C 128.167,33.5 126.833,33.5 125.5,33.5C 125.5,45.5 125.5,57.5 125.5,69.5C 124.505,57.3446 124.171,45.0113 124.5,32.5C 126.415,32.2155 128.081,32.5489 129.5,33.5 Z"/></g>
<g><path style="opacity:0.9" fill="#909090" d="M -0.5,33.5 C -0.5,33.1667 -0.5,32.8333 -0.5,32.5C 5.16667,32.5 10.8333,32.5 16.5,32.5C 16.5,43.5 16.5,54.5 16.5,65.5C 20.7016,65.1832 24.7016,65.5166 28.5,66.5C 24.1667,66.5 19.8333,66.5 15.5,66.5C 15.5,55.5 15.5,44.5 15.5,33.5C 10.1667,33.5 4.83333,33.5 -0.5,33.5 Z"/></g>
<g><path style="opacity:1" fill="#45c5ff" d="M 318.5,41.5 C 321.602,41.154 324.435,41.8207 327,43.5C 327.667,49.1667 327.667,54.8333 327,60.5C 323.333,63.1667 319.667,63.1667 316,60.5C 314.508,55.5893 314.174,50.5893 315,45.5C 316.032,43.9733 317.199,42.64 318.5,41.5 Z"/></g>
<g><path style="opacity:1" fill="#46c5ff" d="M 359.5,41.5 C 365.686,40.042 369.019,42.3753 369.5,48.5C 364.833,48.5 360.167,48.5 355.5,48.5C 355.571,45.3477 356.905,43.0144 359.5,41.5 Z"/></g>
<g><path style="opacity:0.985" fill="#d4d4d4" d="M 40.5,35.5 C 40.44,36.0431 40.1067,36.3764 39.5,36.5C 38.8333,35.5 38.1667,34.5 37.5,33.5C 36.1667,45.5 36.1667,57.5 37.5,69.5C 38.1667,60.0086 38.8334,50.6753 39.5,41.5C 39.5,51.1667 39.5,60.8333 39.5,70.5C 38.1667,70.5 36.8333,70.5 35.5,70.5C 35.5,57.8333 35.5,45.1667 35.5,32.5C 36.8333,32.5 38.1667,32.5 39.5,32.5C 39.2627,33.791 39.596,34.791 40.5,35.5 Z"/></g>
<g><path style="opacity:0.837" fill="#a4a4a4" d="M 50.5,39.5 C 51.494,49.3194 51.8274,59.3194 51.5,69.5C 52.5,69.5 53.5,69.5 54.5,69.5C 53.4324,70.4345 52.099,70.7678 50.5,70.5C 50.5,60.1667 50.5,49.8333 50.5,39.5 Z"/></g>
<g><path style="opacity:0.753" fill="#919191" d="M -0.5,37.5 C -0.5,37.1667 -0.5,36.8333 -0.5,36.5C 3.83333,36.5 8.16667,36.5 12.5,36.5C 12.5,46.5 12.5,56.5 12.5,66.5C 8.16667,66.5 3.83333,66.5 -0.5,66.5C -0.5,66.1667 -0.5,65.8333 -0.5,65.5C 3.5,65.5 7.5,65.5 11.5,65.5C 11.5,56.1667 11.5,46.8333 11.5,37.5C 7.5,37.5 3.5,37.5 -0.5,37.5 Z"/></g>
<g><path style="opacity:0.665" fill="#4d4d4d" d="M 211.5,52.5 C 215.634,51.5151 219.968,51.1818 224.5,51.5C 224.81,54.7131 224.477,57.7131 223.5,60.5C 223.5,57.8333 223.5,55.1667 223.5,52.5C 219.5,52.5 215.5,52.5 211.5,52.5 Z"/></g>
<g><path style="opacity:0.401" fill="#040404" d="M 211.5,52.5 C 215.5,52.5 219.5,52.5 223.5,52.5C 223.5,55.1667 223.5,57.8333 223.5,60.5C 218.989,66.1678 213.322,67.6678 206.5,65C 203.445,60.3864 204.112,56.3864 208.5,53C 209.448,52.5172 210.448,52.3505 211.5,52.5 Z"/></g>
<g><path style="opacity:0.957" fill="#bababa" d="M 69.5,38.5 C 70.4944,48.9869 70.8278,59.6536 70.5,70.5C 68.901,70.7678 67.5676,70.4345 66.5,69.5C 67.5,69.5 68.5,69.5 69.5,69.5C 69.5,59.1667 69.5,48.8333 69.5,38.5 Z"/></g>
<g><path style="opacity:1" fill="#f9fdff" d="M 427.5,69.5 C 437.5,69.5 447.5,69.5 457.5,69.5C 457.5,71.8333 457.5,74.1667 457.5,76.5C 447.5,76.5 437.5,76.5 427.5,76.5C 427.5,74.1667 427.5,71.8333 427.5,69.5 Z"/></g>
</svg>
